# xmcd CD database file
#
# Track frame offsets:
#	150
#	14620
#	31328
#	49912
#	78112
#	99697
#	116417
#	135524
#	148372
#	168934
#	186267
#	214408
#	235646
#	257141
#	274256
#	301146
#
# Disc length: 4335 seconds
#
# Revision: 1
# Processed by: cddbd v1.5.2PL0 Copyright (c) Steve Scherf et al.
# Submitted via: CDex 1.70beta2
#
DISCID=e210ed10
DTITLE=Various Artist - N The Nightfly 11 - CD 2
DYEAR=2007
DGENRE=New Age
TTITLE0=Koop - I See A Different You
TTITLE1=Nina Simone - The Look Of Love (Madison Park Vs Lenny B Remix)
TTITLE2=Mario Biondi And The High Five Quintet - Rio De Janeiro Blue
TTITLE3=Raw Artistic Soul - Bayahibe
TTITLE4=The Juju Orchestra - What Is Hip
TTITLE5=Daniela Mercury Featuring Eumir Deodato - Conmigo
TTITLE6=Sergio Cammariere - Malgrado Poi
TTITLE7=Re Jazz - People Hold On (Alternate A Capella Take)
TTITLE8=Fabio Nobile - Always Love
TTITLE9=Jeff Lorber - Burn Brightly
TTITLE10=Dusko Goykovich - O Grande Amor
TTITLE11=Metropolitan Jazz Affair - Escapism
TTITLE12=Marcos Valle - Agua De Coco
TTITLE13=Slowtrainsoul - Shine
TTITLE14=Gianluca Pighi Ft Three Or Four - Wasabo
TTITLE15=Dario Boente And Huge In Japan - Divine Love
EXTD=YEAR: 2007
EXTT0=
EXTT1=
EXTT2=
EXTT3=
EXTT4=
EXTT5=
EXTT6=
EXTT7=
EXTT8=
EXTT9=
EXTT10=
EXTT11=
EXTT12=
EXTT13=
EXTT14=
EXTT15=
PLAYORDER=
